<?xml version="1.0" encoding="UTF-8"?>
<svg id="Layer_1" data-name="Layer 1" xmlns="http://www.w3.org/2000/svg" viewBox="0 0 1080 1080">
  <defs>
    <style>
      .cls-1 {
        stroke: #9200ac;
        stroke-miterlimit: 10;
        stroke-width: 8.49px;
      }

      .cls-1, .cls-2 {
        fill: #fff;
      }

      .cls-3 {
        fill: #9200ac;
      }

      .cls-3, .cls-2 {
        stroke-width: 0px;
      }
    </style>
  </defs>
  <rect class="cls-2" x="0" y="0" width="1080" height="1080" rx="350" ry="350"/>
  <g>
    <path class="cls-3" d="M942.38,494.11c-23.07-97.95-132.92-155.41-229.49-110-52.47,24.67-111.05,38.46-172.87,38.46-4.44,0-8.84-.07-13.24-.22,55.34-14.19,105.19-39.22,147.84-72.26,94.42-73.28,233.35-24.23,260.27,92.2.22.95.44,1.93.65,2.87,1.86,8.26,3.42,16.48,4.77,24.74,1.31,8.15,2,16.23,2.07,24.2Z"/>
    <path class="cls-3" d="M552.86,657.71c-55.09,14.19-104.72,39.08-147.18,71.97-91.48,70.81-225.63,28.71-257.73-82.42-2.29-8.01-4.4-16.16-6.22-24.38-.22-.98-.44-1.93-.65-2.91-2.69-12.44-3.93-24.78-3.82-36.79,21.18,100.83,133.03,158.21,230.26,112.62,52.4-24.56,110.83-38.28,172.51-38.28,4.29,0,8.59.07,12.84.18Z"/>
    <path class="cls-1" d="M946.75,530.97v2.95c0,8.44-.25,16.85-.76,25.18-7.06,115.46-128.77,185.83-233.49,136.71-48.72-22.85-102.72-36.31-159.63-38.1-4.26-.11-8.55-.18-12.84-.18-61.68,0-120.11,13.72-172.51,38.28-97.23,45.59-209.08-11.79-230.26-112.62-1.64-7.79-2.73-15.83-3.24-24.09-.51-8.33-.76-16.74-.76-25.18,0-.98,0-1.96.04-2.95.84-119.53,125.68-197.73,233.86-146.86,48.69,22.89,102.68,36.42,159.63,38.24,4.4.15,8.81.22,13.24.22,61.82,0,120.4-13.79,172.87-38.46,96.57-45.41,206.42,12.04,229.49,110,2.77,11.72,4.26,24.05,4.37,36.86Z"/>
  </g>
</svg>