<?xml version="1.0" encoding="UTF-8"?>
<svg id="Layer_1" xmlns="http://www.w3.org/2000/svg" viewBox="0 0 526 526">
  <defs>
    <style>
      .cls-1 {
        fill: #9200ac;
      }
    </style>
  </defs>
  <path class="cls-1" d="M383.83,357.2l-94.2-94.2,94.2-94.2c5.87-5.87,5.87-15.39,0-21.26l-5.37-5.37c-5.87-5.87-15.39-5.87-21.26,0l-94.2,94.2-94.2-94.2c-5.87-5.87-15.39-5.87-21.26,0l-5.37,5.37c-5.87,5.87-5.87,15.39,0,21.26l94.2,94.2-94.2,94.2c-5.87,5.87-5.87,15.39,0,21.26l5.37,5.37c5.87,5.87,15.39,5.87,21.26,0l94.2-94.2,94.2,94.2c5.87,5.87,15.39,5.87,21.26,0l5.37-5.37c5.87-5.87,5.87-15.39,0-21.26Z"/>
</svg>